PathFileType	4	(X/Y/Z)	C:/Users/opensim2020/Desktop/walking_exp_matlab/subject01_walking09_straight_01.trc																																																																																																																															
DataRate	CameraRate	NumFrames	NumMarkers	Units	OrigDataRate	OrigDataStartFrame	OrigNumFrames																																																																																																																											
100	100	5	43	mm	100	953	485																																																																																																																											
Frame#	Time	LFHD			RFHD			LBHD			RBHD			C7			T10			CLAV			STRN			RBAK			LSHO			LUPA			LELB			LFRM			LWRA			LWRB			LFIN			RSHO			RUPA			RELB			RFRM			RWRA			RWRB			RFIN			LASI			RASI			LPSI			RPSI			LTHI			LKNE			LTIB			LANK			LHEE			LTOE			RTHI			RKNE			RTIB			RANK			RHEE			RTOE			*39			*40			*41			*42		
		X1	Y1	Z1	X2	Y2	Z2	X3	Y3	Z3	X4	Y4	Z4	X5	Y5	Z5	X6	Y6	Z6	X7	Y7	Z7	X8	Y8	Z8	X9	Y9	Z9	X10	Y10	Z10	X11	Y11	Z11	X12	Y12	Z12	X13	Y13	Z13	X14	Y14	Z14	X15	Y15	Z15	X16	Y16	Z16	X17	Y17	Z17	X18	Y18	Z18	X19	Y19	Z19	X20	Y20	Z20	X21	Y21	Z21	X22	Y22	Z22	X23	Y23	Z23	X24	Y24	Z24	X25	Y25	Z25	X26	Y26	Z26	X27	Y27	Z27	X28	Y28	Z28	X29	Y29	Z29	X30	Y30	Z30	X31	Y31	Z31	X32	Y32	Z32	X33	Y33	Z33	X34	Y34	Z34	X35	Y35	Z35	X36	Y36	Z36	X37	Y37	Z37	X38	Y38	Z38	X39	Y39	Z39	X40	Y40	Z40	X41	Y41	Z41	X42	Y42	Z42	X43	Y43	Z43
																																																																																																																																		
182	1.81	-424.0293	1679.11035	-1036.71985	-408.67715	1690.98315	-924.65479	-520.9707	1601.12378	-1024.24036	-507.19363	1611.25977	-904.77228	-519.57391	1438.5033	-977.375	-560.91833	1145.98145	-963.12415	-376.69714	1366.85571	-981.61652	-339.01917	1209.41455	-987.01691	-573.91632	1246.1283	-893.41705	-443.85178	1397.32935	-1139.46008	-485.82077	1212.41162	-1217.31384	-503.81229	1062.37207	-1211.20435	-470.00659	954.33209	-1235.09583	-391.15802	839.96466	-1232.49146	-450.06625	832.82855	-1236.65271	-408.56229	761.33618	-1255.68567	-432.18475	1397.24524	-827.88953	-477.19302	1197.2251	-719.91882	-469.30402	1071.29761	-716.2309	-421.15833	958.09949	-694.15704	-326.25034	856.57666	-727.14636	-365.92419	849.49878	-684.83691	-315.68741	780.28607	-690.37134	-395.77417	939.94269	-1078.73962	-389.53888	932.33826	-860.94128	-580.55627	949.29724	-1023.34833	-576.02521	950.09387	-878.26935	-349.11209	625.36157	-1153.89502	-324.02896	493.16608	-1140.75146	-380.24084	314.24338	-1154.17102	-407.98819	94.11488	-1112.74072	-446.65964	61.33352	-1054.58594	-269.52823	53.49855	-1134.71973	-452.12708	597.83917	-819.1098	-448.20825	440.29794	-851.52148	-508.33121	273.55618	-847.44647	-544.55756	73.0022	-904.82904	-595.31372	35.06705	-954.99237	-404.89551	34.27674	-907.61841	-431.41751	1718.44055	-946.51227	1973.14587	1023.45691	-3101.90039	2012.55408	1022.13959	-3140.56592	NaN	NaN	NaN
183	1.82	-418.6579	1678.85547	-1037.1709	-403.26303	1690.67554	-924.98657	-515.49963	1600.57202	-1024.42908	-501.73337	1610.89429	-904.97894	-513.98395	1438.09839	-977.4046	-555.73877	1145.77441	-963.18158	-371.47476	1366.45166	-981.51965	-333.82364	1209.0426	-987.11847	-568.99017	1246.13403	-893.1839	-438.75082	1396.9231	-1139.68713	-481.45169	1212.06311	-1217.29175	-500.22876	1062.17749	-1211.18018	-467.43234	953.94043	-1235.24536	-389.61121	838.71307	-1232.83789	-448.55573	832.24615	-1236.84937	-407.96027	760.47064	-1256.2196	-426.38074	1396.9303	-828.20032	-471.12805	1197.04224	-719.78741	-463.30933	1071.16187	-715.97339	-414.50821	958.03558	-694.28906	-318.98856	857.10583	-727.65491	-358.61841	849.70581	-685.33441	-307.96793	780.94946	-690.90631	-390.42355	939.776	-1078.71204	-384.67352	931.94458	-860.7406	-575.41962	949.02502	-1023.56366	-571.1662	949.65973	-878.6145	-345.21518	624.62976	-1154.25757	-319.68173	492.52484	-1140.8125	-369.68314	312.07892	-1154.92041	-389.36908	90.80225	-1114.26001	-427.05356	56.80617	-1056.26477	-249.01582	54.89671	-1135.27319	-449.03281	597.5257	-819.36108	-446.11142	439.88416	-851.97986	-507.00635	273.48666	-847.45819	-544.45526	73.11922	-904.83447	-594.9837	35.3499	-955.03552	-404.83246	34.22888	-907.61053	-426.00348	1718.09595	-946.89313	1973.04797	1023.44788	-3101.94214	2012.45239	1021.91479	-3140.8479	NaN	NaN	NaN
184	1.83	-413.29529	1678.38086	-1037.54956	-397.83148	1690.30579	-925.3808	-510.24445	1600.40698	-1024.79773	-496.32199	1610.54578	-905.30151	-508.7402	1437.74048	-977.53302	-550.45709	1145.40259	-963.4845	-366.22198	1366.10791	-981.7934	-328.61856	1208.65039	-987.21277	-563.33307	1245.76001	-893.22455	-433.58917	1396.49146	-1139.87866	-477.01611	1211.66504	-1217.42358	-496.6091	1061.97302	-1211.22205	-464.72092	953.52429	-1235.40039	-387.94537	837.77014	-1233.38782	-446.98071	831.63745	-1237.15417	-407.00439	759.53656	-1256.64575	-420.9213	1396.58765	-828.50916	-464.89041	1196.84326	-719.64557	-456.89609	1070.89429	-716.05743	-407.94034	957.84998	-694.72345	-311.76501	857.6217	-728.21729	-351.17258	849.82623	-685.87537	-300.18503	781.31085	-691.71906	-385.02899	939.48651	-1078.70349	-379.95132	931.4668	-860.7442	-570.13287	948.64612	-1023.99255	-566.24023	949.24298	-879.02899	-341.31021	623.81274	-1154.67566	-315.31653	491.81091	-1140.96655	-359.43277	310.09872	-1155.85559	-371.30472	87.5613	-1115.59644	-407.90918	52.70885	-1057.93958	-229.45627	57.02751	-1136.16187	-445.46347	597.24023	-819.48236	-443.49338	439.50583	-851.83215	-505.67068	273.47275	-847.41058	-544.39813	73.0646	-904.90741	-595.00629	35.70884	-955.09229	-404.78192	34.24524	-907.5564	-420.58517	1717.70532	-947.13867	1973.08752	1023.79932	-3102.05566	2012.47388	1021.9198	-3140.7583	NaN	NaN	NaN
185	1.84	-407.93054	1677.85022	-1037.93701	-392.31375	1689.83069	-925.91742	-504.89465	1600.07678	-1025.12354	-490.87921	1610.31006	-905.66162	-503.53549	1437.40588	-977.84381	-545.16742	1145.0072	-963.78839	-360.91531	1365.71887	-982.133	-323.30499	1208.2616	-987.37036	-558.39203	1245.60498	-893.20001	-428.43683	1396.02991	-1140.22803	-472.49527	1211.27173	-1217.59949	-492.84061	1061.755	-1211.28979	-461.95837	953.0744	-1235.66187	-386.1138	836.67944	-1233.91125	-445.1777	831.06421	-1237.51563	-405.82721	758.64154	-1257.16785	-415.52216	1396.25562	-828.78729	-458.87338	1196.53882	-719.68109	-450.73047	1070.58411	-716.15167	-401.10568	957.71655	-694.93207	-304.5491	858.03864	-728.89111	-343.86581	849.97144	-686.64063	-292.5592	781.71027	-692.56946	-379.51712	939.15112	-1078.79651	-374.86597	931.07104	-860.62561	-564.77051	948.24426	-1024.42505	-561.5321	949.16376	-879.47314	-337.31537	622.88733	-1155.1189	-310.99365	491.0773	-1141.23083	-349.41058	308.30496	-1156.70459	-353.56033	85.32662	-1117.10596	-389.13913	49.2309	-1059.55859	-210.41916	59.26059	-1136.93884	-442.28577	596.96851	-819.65369	-441.03275	439.19894	-851.45386	-504.24374	273.51343	-847.43817	-544.26654	73.17165	-904.99731	-595.42828	36.27765	-955.10547	-404.73282	34.20677	-907.53857	-415.12393	1717.33191	-947.62433	1973.01868	1023.74628	-3102.03052	2012.5376	1022.04706	-3140.80884	NaN	NaN	NaN
186	1.85	-402.45398	1677.41406	-1038.59448	-386.8288	1689.45166	-926.51599	-499.6279	1599.75781	-1025.68689	-485.41806	1609.97485	-906.19965	-498.31778	1436.96765	-978.21344	-539.81976	1144.55115	-964.18616	-355.63214	1365.3241	-982.55072	-317.91547	1207.87329	-987.60425	-552.69598	1245.10083	-893.50751	-423.19772	1395.58386	-1140.63416	-467.96356	1210.80847	-1217.82605	-489.04852	1061.47217	-1211.52185	-459.02591	952.63916	-1235.98022	-384.08517	835.52472	-1234.4071	-443.23627	830.49542	-1237.97693	-404.509	757.78259	-1257.81812	-410.0983	1395.93274	-829.18683	-452.8508	1196.18738	-719.82391	-444.80652	1070.1062	-716.25824	-394.43021	957.40674	-695.50262	-297.3093	858.39703	-729.44049	-336.93405	849.90192	-687.33105	-284.97513	782.0235	-693.45782	-373.93857	938.68811	-1078.9469	-369.87881	930.51398	-860.65143	-559.31842	947.80731	-1024.91724	-556.37842	948.68188	-880.10706	-333.25406	621.92206	-1155.62427	-306.7027	490.25604	-1141.59973	-339.57242	306.70651	-1157.60425	-335.98904	83.66156	-1118.41614	-370.74881	46.31289	-1061.09985	-192.19847	61.64475	-1137.82117	-439.12482	596.59888	-819.90442	-439.04343	438.86017	-852.12885	-502.4212	273.22134	-847.56714	-543.93079	73.23746	-905.00311	-595.52069	36.70009	-955.19324	-404.67203	34.20101	-907.54071	-409.561	1716.94702	-948.40668	1973.13892	1023.37311	-3101.89868	2012.58142	1022.00299	-3140.72388	NaN	NaN	NaN
